<svg version="1.1" xmlns="http://www.w3.org/2000/svg" viewBox="0 0 519.3022721785586 444.02944056622675" width="519.3022721785586" height="444.02944056622675">
  <!-- svg-source:excalidraw -->
  
  <defs>
    <style class="style-fonts">
      @font-face {
        font-family: "Virgil";
        src: url("https://excalidraw.com/Virgil.woff2");
      }
      @font-face {
        font-family: "Cascadia";
        src: url("https://excalidraw.com/Cascadia.woff2");
      }
      @font-face {
        font-family: "Assistant";
        src: url("https://excalidraw.com/Assistant-Regular.woff2");
      }
    </style>
    
  </defs>
  <g stroke-linecap="round"><g transform="translate(209.47020113202746 311.4735122067202) rotate(0 0 -150)"><path d="M-0.43 0.99 C-0.73 -49.07, -1.22 -249.26, -1.01 -299.57 M1.54 0.47 C1.54 -50.04, 1.34 -251.39, 1.17 -301.47" stroke="#1e1e1e" stroke-width="2" fill="none"></path></g><g transform="translate(209.47020113202746 311.4735122067202) rotate(0 0 -150)"><path d="M11.49 -273.3 C9.19 -285.29, 4.49 -292.45, 1.17 -301.47 M11.49 -273.3 C9.47 -279.18, 6.62 -285.64, 1.17 -301.47" stroke="#1e1e1e" stroke-width="2" fill="none"></path></g><g transform="translate(209.47020113202746 311.4735122067202) rotate(0 0 -150)"><path d="M-9.03 -273.26 C-3.85 -285.19, -1.08 -292.37, 1.17 -301.47 M-9.03 -273.26 C-6.4 -279.19, -4.6 -285.66, 1.17 -301.47" stroke="#1e1e1e" stroke-width="2" fill="none"></path></g></g><mask></mask><g stroke-linecap="round"><g transform="translate(209.47020113202746 311.4735122067202) rotate(0 -100 50)"><path d="M-0.28 1.11 C-33.52 17.84, -165.6 83.46, -199.03 99.98 M1.78 0.65 C-31.58 17.61, -166.11 84.67, -199.47 101.5" stroke="#1e1e1e" stroke-width="2" fill="none"></path></g><g transform="translate(209.47020113202746 311.4735122067202) rotate(0 -100 50)"><path d="M-178.87 79.7 C-184 88.59, -192.81 92.9, -199.47 101.5 M-178.87 79.7 C-186.22 85.68, -191.84 93.38, -199.47 101.5" stroke="#1e1e1e" stroke-width="2" fill="none"></path></g><g transform="translate(209.47020113202746 311.4735122067202) rotate(0 -100 50)"><path d="M-169.67 98.04 C-177.83 100.75, -189.74 98.9, -199.47 101.5 M-169.67 98.04 C-179.82 98.21, -188.36 100.09, -199.47 101.5" stroke="#1e1e1e" stroke-width="2" fill="none"></path></g></g><mask></mask><g stroke-linecap="round"><g transform="translate(209.47020113202746 311.4735122067202) rotate(0 150 0)"><path d="M0.2 -0.63 C50.23 -0.54, 249.82 0.8, 299.83 1.1 M-1.16 1.66 C48.73 1.39, 248.66 -0.07, 298.8 -0.44" stroke="#1e1e1e" stroke-width="2" fill="none"></path></g><g transform="translate(209.47020113202746 311.4735122067202) rotate(0 150 0)"><path d="M270.68 10.02 C277.17 6.88, 287.63 4.81, 298.8 -0.44 M270.68 10.02 C282.07 5.77, 292.66 1.92, 298.8 -0.44" stroke="#1e1e1e" stroke-width="2" fill="none"></path></g><g transform="translate(209.47020113202746 311.4735122067202) rotate(0 150 0)"><path d="M270.53 -10.5 C277.15 -8.11, 287.66 -4.65, 298.8 -0.44 M270.53 -10.5 C281.87 -6.61, 292.52 -2.32, 298.8 -0.44" stroke="#1e1e1e" stroke-width="2" fill="none"></path></g></g><mask></mask><g transform="translate(12.470201132027455 356.4735122067202) rotate(0 5.6199951171875 12.5)"><text x="0" y="0" font-family="Virgil, Segoe UI Emoji" font-size="20px" fill="#1e1e1e" text-anchor="start" style="white-space: pre;" direction="ltr" dominant-baseline="text-before-edge">x</text></g><g transform="translate(468.47020113202746 242.47351220672022) rotate(0 4.689994812011719 12.5)"><text x="0" y="0" font-family="Virgil, Segoe UI Emoji" font-size="20px" fill="#1e1e1e" text-anchor="start" style="white-space: pre;" direction="ltr" dominant-baseline="text-before-edge">y</text></g><g transform="translate(229.47020113202746 11.473512206720216) rotate(0 5.719993591308594 12.5)"><text x="0" y="0" font-family="Virgil, Segoe UI Emoji" font-size="20px" fill="#1e1e1e" text-anchor="start" style="white-space: pre;" direction="ltr" dominant-baseline="text-before-edge">z</text></g><g stroke-linecap="round"><g transform="translate(129.47020113202746 331.4735122067202) rotate(0 120 30)"><path d="M-0.91 -0.25 C-10.92 6.32, -59.21 22.88, -58.92 39.56 C-58.63 56.23, -42.4 93.24, 0.84 99.8 C44.09 106.35, 150.5 92.06, 200.55 78.89 C250.6 65.73, 287.94 40.5, 301.13 20.83 C314.31 1.16, 293.37 -29.01, 279.67 -39.13 C265.96 -49.25, 228.87 -39.88, 218.89 -39.87 M0.81 -1.43 C-9.36 5.29, -59.25 23.79, -59.3 40.86 C-59.35 57.93, -42.88 94.58, 0.52 101.01 C43.91 107.43, 151.13 92.64, 201.09 79.42 C251.04 66.19, 286.94 41.51, 300.25 21.65 C313.55 1.8, 294.45 -29.25, 280.9 -39.72 C267.35 -50.18, 229.32 -41.28, 218.96 -41.15" stroke="#e03131" stroke-width="4" fill="none"></path></g><g transform="translate(129.47020113202746 331.4735122067202) rotate(0 120 30)"><path d="M245.83 -54.49 C234.78 -47.6, 223.81 -42.72, 218.96 -41.15 M245.83 -54.49 C239.23 -50.27, 230.41 -46.46, 218.96 -41.15" stroke="#e03131" stroke-width="4" fill="none"></path></g><g transform="translate(129.47020113202746 331.4735122067202) rotate(0 120 30)"><path d="M248.12 -34.09 C236.14 -35.3, 224.26 -38.5, 218.96 -41.15 M248.12 -34.09 C240.77 -35.67, 231.3 -37.63, 218.96 -41.15" stroke="#e03131" stroke-width="4" fill="none"></path></g></g><mask></mask><g stroke-linecap="round"><g transform="translate(130.8545785100829 276.5356372446065) rotate(0 120 30)"><path d="M0.68 0.91 C-9.51 7.66, -60.33 24.51, -60.29 41.08 C-60.25 57.65, -42.34 93.74, 0.92 100.31 C44.18 106.88, 149.3 94.02, 199.28 80.5 C249.26 66.98, 287.21 39.38, 300.79 19.18 C314.37 -1.02, 294.15 -30.8, 280.74 -40.72 C267.34 -50.64, 230.57 -40.47, 220.35 -40.33 M-0.43 0.35 C-10.86 6.73, -61.56 22.62, -61.38 39.53 C-61.21 56.43, -42.78 95.35, 0.64 101.8 C44.06 108.24, 149.3 91.99, 199.15 78.21 C248.99 64.43, 286.44 38.59, 299.73 19.14 C313.02 -0.31, 291.98 -28.93, 278.88 -38.48 C265.79 -48.04, 230.7 -37.91, 221.18 -38.19" stroke="#e03131" stroke-width="4" fill="none"></path></g><g transform="translate(130.8545785100829 276.5356372446065) rotate(0 120 30)"><path d="M247.91 -51.82 C239.67 -47.13, 230.11 -40.1, 221.18 -38.19 M247.91 -51.82 C239.77 -47.95, 231.01 -43.42, 221.18 -38.19" stroke="#e03131" stroke-width="4" fill="none"></path></g><g transform="translate(130.8545785100829 276.5356372446065) rotate(0 120 30)"><path d="M250.41 -31.45 C241.15 -34.24, 230.67 -34.71, 221.18 -38.19 M250.41 -31.45 C241.58 -34.21, 232 -36.33, 221.18 -38.19" stroke="#e03131" stroke-width="4" fill="none"></path></g></g><mask></mask><g stroke-linecap="round"><g transform="translate(128.9497730461086 216.81872532855147) rotate(0 120 30)"><path d="M-0.58 0.13 C-10.48 6.69, -58.98 22.27, -59.04 39.06 C-59.09 55.86, -44.15 94.18, -0.91 100.89 C42.34 107.61, 150.29 92.96, 200.44 79.37 C250.6 65.78, 286.72 39.22, 300.03 19.35 C313.33 -0.53, 293.8 -30.05, 280.29 -39.88 C266.78 -49.7, 228.86 -39.72, 218.96 -39.61 M1.31 -0.85 C-8.69 5.86, -59.51 23.46, -59.48 40.11 C-59.45 56.75, -41.89 92.35, 1.51 99.02 C44.91 105.69, 151.41 93.41, 200.92 80.14 C250.43 66.87, 285.69 39.56, 298.57 19.4 C311.45 -0.77, 291.45 -30.83, 278.19 -40.85 C264.94 -50.88, 228.7 -41.04, 219.05 -40.75" stroke="#e03131" stroke-width="4" fill="none"></path></g><g transform="translate(128.9497730461086 216.81872532855147) rotate(0 120 30)"><path d="M245.54 -54.84 C236.98 -48.72, 226.49 -47.2, 219.05 -40.75 M245.54 -54.84 C235.7 -50.25, 226 -44.33, 219.05 -40.75" stroke="#e03131" stroke-width="4" fill="none"></path></g><g transform="translate(128.9497730461086 216.81872532855147) rotate(0 120 30)"><path d="M248.39 -34.52 C238.95 -35.11, 227.52 -40.28, 219.05 -40.75 M248.39 -34.52 C237.41 -37.55, 226.64 -39.24, 219.05 -40.75" stroke="#e03131" stroke-width="4" fill="none"></path></g></g><mask></mask><g stroke-linecap="round"><g transform="translate(169.47020113202746 251.47351220672022) rotate(0 -10 -110)"><path d="M0.36 0.95 C-2.74 -15.99, -18.93 -63.96, -19.04 -100.79 C-19.15 -137.63, -3.54 -200.03, -0.31 -220.04 M-0.91 0.4 C-4.05 -16.48, -19.43 -63.15, -19.48 -99.67 C-19.53 -136.2, -4.61 -198.66, -1.23 -218.75" stroke="#e03131" stroke-width="4" fill="none"></path></g><g transform="translate(169.47020113202746 251.47351220672022) rotate(0 -10 -110)"><path d="M3.4 -189.11 C3.54 -195.36, -0.59 -205.34, -1.23 -218.75 M3.4 -189.11 C1.93 -198.9, 1.36 -206.53, -1.23 -218.75" stroke="#e03131" stroke-width="4" fill="none"></path></g><g transform="translate(169.47020113202746 251.47351220672022) rotate(0 -10 -110)"><path d="M-16.74 -193.07 C-11.22 -198.32, -10.02 -207.25, -1.23 -218.75 M-16.74 -193.07 C-12.23 -201.54, -6.83 -208, -1.23 -218.75" stroke="#e03131" stroke-width="4" fill="none"></path></g></g><mask></mask></svg>