<?xml version="1.0" encoding="us-ascii" standalone="no"?><svg xmlns="http://www.w3.org/2000/svg" xmlns:xlink="http://www.w3.org/1999/xlink" contentStyleType="text/css" height="753px" preserveAspectRatio="none" style="width:669px;height:753px;background:#FFFFFF;" version="1.1" viewBox="0 0 669 753" width="669px" zoomAndPan="magnify"><defs/><g><rect fill="#1E90FF" height="36.2969" rx="12.5" ry="12.5" style="stroke:#181818;stroke-width:1.5;" width="51" x="10" y="357.7813"/><a href="index.svg" target="_top" title="index.svg" xlink:actuate="onRequest" xlink:href="index.svg" xlink:show="new" xlink:title="index.svg" xlink:type="simple"><text fill="#0000FF" font-family="sans-serif" font-size="14" lengthAdjust="spacing" text-decoration="underline" textLength="31" x="20" y="380.7764">CAD</text></a><rect fill="#1E90FF" height="36.2969" rx="12.5" ry="12.5" style="stroke:#181818;stroke-width:1.5;" width="96" x="111" y="104.4453"/><a href="3d.svg" target="_top" title="3d.svg" xlink:actuate="onRequest" xlink:href="3d.svg" xlink:show="new" xlink:title="3d.svg" xlink:type="simple"><text fill="#0000FF" font-family="sans-serif" font-size="14" lengthAdjust="spacing" text-decoration="underline" textLength="76" x="121" y="127.4404">3D Shapes</text></a><rect fill="#1E90FF" height="36.2969" rx="12.5" ry="12.5" style="stroke:#181818;stroke-width:1.5;" width="57" x="257" y="20"/><a href="cubo.svg" target="_top" title="cubo.svg" xlink:actuate="onRequest" xlink:href="cubo.svg" xlink:show="new" xlink:title="cubo.svg" xlink:type="simple"><text fill="#0000FF" font-family="sans-serif" font-size="14" lengthAdjust="spacing" text-decoration="underline" textLength="37" x="267" y="42.9951">Cubo</text></a><path d="M207,122.5938 L217,122.5938 C232,122.5938 232,38.1484 247,38.1484 L257,38.1484 " fill="none" style="stroke:#181818;stroke-width:1.0;"/><rect fill="#1E90FF" height="36.2969" rx="12.5" ry="12.5" style="stroke:#181818;stroke-width:1.5;" width="65" x="257" y="76.2969"/><a href="esfera.svg" target="_top" title="esfera.svg" xlink:actuate="onRequest" xlink:href="esfera.svg" xlink:show="new" xlink:title="esfera.svg" xlink:type="simple"><text fill="#0000FF" font-family="sans-serif" font-size="14" lengthAdjust="spacing" text-decoration="underline" textLength="45" x="267" y="99.292">Esfera</text></a><path d="M207,122.5938 L217,122.5938 C232,122.5938 232,94.4453 247,94.4453 L257,94.4453 " fill="none" style="stroke:#181818;stroke-width:1.0;"/><rect fill="#1E90FF" height="36.2969" rx="12.5" ry="12.5" style="stroke:#181818;stroke-width:1.5;" width="75" x="257" y="132.5938"/><a href="cili.svg" target="_top" title="cili.svg" xlink:actuate="onRequest" xlink:href="cili.svg" xlink:show="new" xlink:title="cili.svg" xlink:type="simple"><text fill="#0000FF" font-family="sans-serif" font-size="14" lengthAdjust="spacing" text-decoration="underline" textLength="55" x="267" y="155.5889">Cilindro</text></a><rect fill="#1E90FF" height="36.2969" rx="12.5" ry="12.5" style="stroke:#181818;stroke-width:1.5;" width="60" x="382" y="132.5938"/><a href="radio.svg" target="_top" title="radio.svg" xlink:actuate="onRequest" xlink:href="radio.svg" xlink:show="new" xlink:title="radio.svg" xlink:type="simple"><text fill="#0000FF" font-family="sans-serif" font-size="14" lengthAdjust="spacing" text-decoration="underline" textLength="40" x="392" y="155.5889">Radio</text></a><path d="M332,150.7422 L342,150.7422 C357,150.7422 357,150.7422 372,150.7422 L382,150.7422 " fill="none" style="stroke:#181818;stroke-width:1.0;"/><path d="M207,122.5938 L217,122.5938 C232,122.5938 232,150.7422 247,150.7422 L257,150.7422 " fill="none" style="stroke:#181818;stroke-width:1.0;"/><rect fill="#1E90FF" height="36.2969" rx="12.5" ry="12.5" style="stroke:#181818;stroke-width:1.5;" width="75" x="257" y="188.8906"/><a href="toro.svg" target="_top" title="toro.svg" xlink:actuate="onRequest" xlink:href="toro.svg" xlink:show="new" xlink:title="toro.svg" xlink:type="simple"><text fill="#0000FF" font-family="sans-serif" font-size="14" lengthAdjust="spacing" text-decoration="underline" textLength="55" x="267" y="211.8857">Toroide</text></a><rect fill="#F1F1F1" height="36.2969" rx="12.5" ry="12.5" style="stroke:#181818;stroke-width:1.5;" width="60" x="382" y="188.8906"/><a href="rad2.svg" target="_top" title="rad2.svg" xlink:actuate="onRequest" xlink:href="rad2.svg" xlink:show="new" xlink:title="rad2.svg" xlink:type="simple"><text fill="#0000FF" font-family="sans-serif" font-size="14" lengthAdjust="spacing" text-decoration="underline" textLength="40" x="392" y="211.8857">Radio</text></a><path d="M332,207.0391 L342,207.0391 C357,207.0391 357,207.0391 372,207.0391 L382,207.0391 " fill="none" style="stroke:#181818;stroke-width:1.0;"/><path d="M207,122.5938 L217,122.5938 C232,122.5938 232,207.0391 247,207.0391 L257,207.0391 " fill="none" style="stroke:#181818;stroke-width:1.0;"/><path d="M61,375.9297 L71,375.9297 C86,375.9297 86,122.5938 101,122.5938 L111,122.5938 " fill="none" style="stroke:#181818;stroke-width:1.0;"/><rect fill="#F1F1F1" height="52.5938" rx="12.5" ry="12.5" style="stroke:#181818;stroke-width:1.5;" width="152" x="111" y="405.9297"/><a href="tb.svg" target="_top" title="tb.svg" xlink:actuate="onRequest" xlink:href="tb.svg" xlink:show="new" xlink:title="tb.svg" xlink:type="simple"><text fill="#0000FF" font-family="sans-serif" font-size="14" lengthAdjust="spacing" text-decoration="underline" textLength="128" x="121" y="428.9248">Transformaciones</text></a><a href="tb.svg" target="_top" title="tb.svg" xlink:actuate="onRequest" xlink:href="tb.svg" xlink:show="new" xlink:title="tb.svg" xlink:type="simple"><text fill="#0000FF" font-family="sans-serif" font-size="14" lengthAdjust="spacing" text-decoration="underline" textLength="52" x="121" y="445.2217">b&#225;sicas</text></a><rect fill="#F1F1F1" height="36.2969" rx="12.5" ry="12.5" style="stroke:#181818;stroke-width:1.5;" width="92" x="313" y="301.4844"/><a href="tras.svg" target="_top" title="tras.svg" xlink:actuate="onRequest" xlink:href="tras.svg" xlink:show="new" xlink:title="tras.svg" xlink:type="simple"><text fill="#0000FF" font-family="sans-serif" font-size="14" lengthAdjust="spacing" text-decoration="underline" textLength="72" x="323" y="324.4795">Traslaci&#243;n</text></a><rect fill="#F1F1F1" height="36.2969" rx="12.5" ry="12.5" style="stroke:#181818;stroke-width:1.5;" width="142" x="455" y="245.1875"/><a href="af.svg" target="_top" title="af.svg" xlink:actuate="onRequest" xlink:href="af.svg" xlink:show="new" xlink:title="af.svg" xlink:type="simple"><text fill="#0000FF" font-family="sans-serif" font-size="14" lengthAdjust="spacing" text-decoration="underline" textLength="122" x="465" y="268.1826">A&#241;adir figuras 3D</text></a><path d="M405,319.6328 L415,319.6328 C430,319.6328 430,263.3359 445,263.3359 L455,263.3359 " fill="none" style="stroke:#181818;stroke-width:1.0;"/><rect fill="#F1F1F1" height="36.2969" rx="12.5" ry="12.5" style="stroke:#181818;stroke-width:1.5;" width="202" x="455" y="301.4844"/><a href="ti.svg" target="_top" title="ti.svg" xlink:actuate="onRequest" xlink:href="ti.svg" xlink:show="new" xlink:title="ti.svg" xlink:type="simple"><text fill="#0000FF" font-family="sans-serif" font-size="14" lengthAdjust="spacing" text-decoration="underline" textLength="182" x="465" y="324.4795">Traslaci&#243;n independiente</text></a><path d="M405,319.6328 L415,319.6328 C430,319.6328 430,319.6328 445,319.6328 L455,319.6328 " fill="none" style="stroke:#181818;stroke-width:1.0;"/><rect fill="#F1F1F1" height="36.2969" rx="12.5" ry="12.5" style="stroke:#181818;stroke-width:1.5;" width="189" x="455" y="357.7813"/><a href="td.svg" target="_top" title="td.svg" xlink:actuate="onRequest" xlink:href="td.svg" xlink:show="new" xlink:title="td.svg" xlink:type="simple"><text fill="#0000FF" font-family="sans-serif" font-size="14" lengthAdjust="spacing" text-decoration="underline" textLength="169" x="465" y="380.7764">Traslaci&#243;n dependiente</text></a><path d="M405,319.6328 L415,319.6328 C430,319.6328 430,375.9297 445,375.9297 L455,375.9297 " fill="none" style="stroke:#181818;stroke-width:1.0;"/><path d="M263,432.2266 L273,432.2266 C288,432.2266 288,319.6328 303,319.6328 L313,319.6328 " fill="none" style="stroke:#181818;stroke-width:1.0;"/><rect fill="#F1F1F1" height="36.2969" rx="12.5" ry="12.5" style="stroke:#181818;stroke-width:1.5;" width="84" x="313" y="470.375"/><a href="rot.svg" target="_top" title="rot.svg" xlink:actuate="onRequest" xlink:href="rot.svg" xlink:show="new" xlink:title="rot.svg" xlink:type="simple"><text fill="#0000FF" font-family="sans-serif" font-size="14" lengthAdjust="spacing" text-decoration="underline" textLength="64" x="323" y="493.3701">Rotaci&#243;n</text></a><rect fill="#F1F1F1" height="36.2969" rx="12.5" ry="12.5" style="stroke:#181818;stroke-width:1.5;" width="118" x="447" y="414.0781"/><a href="af2.svg" target="_top" title="af2.svg" xlink:actuate="onRequest" xlink:href="af2.svg" xlink:show="new" xlink:title="af2.svg" xlink:type="simple"><text fill="#0000FF" font-family="sans-serif" font-size="14" lengthAdjust="spacing" text-decoration="underline" textLength="98" x="457" y="437.0732">A&#241;adir figuras</text></a><path d="M397,488.5234 L407,488.5234 C422,488.5234 422,432.2266 437,432.2266 L447,432.2266 " fill="none" style="stroke:#181818;stroke-width:1.0;"/><rect fill="#F1F1F1" height="36.2969" rx="12.5" ry="12.5" style="stroke:#181818;stroke-width:1.5;" width="105" x="447" y="470.375"/><a href="or.svg" target="_top" title="or.svg" xlink:actuate="onRequest" xlink:href="or.svg" xlink:show="new" xlink:title="or.svg" xlink:type="simple"><text fill="#0000FF" font-family="sans-serif" font-size="14" lengthAdjust="spacing" text-decoration="underline" textLength="85" x="457" y="493.3701">En el origen</text></a><path d="M397,488.5234 L407,488.5234 C422,488.5234 422,488.5234 437,488.5234 L447,488.5234 " fill="none" style="stroke:#181818;stroke-width:1.0;"/><rect fill="#F1F1F1" height="36.2969" rx="12.5" ry="12.5" style="stroke:#181818;stroke-width:1.5;" width="133" x="447" y="526.6719"/><a href="lor.svg" target="_top" title="lor.svg" xlink:actuate="onRequest" xlink:href="lor.svg" xlink:show="new" xlink:title="lor.svg" xlink:type="simple"><text fill="#0000FF" font-family="sans-serif" font-size="14" lengthAdjust="spacing" text-decoration="underline" textLength="113" x="457" y="549.667">Lejos del origen</text></a><path d="M397,488.5234 L407,488.5234 C422,488.5234 422,544.8203 437,544.8203 L447,544.8203 " fill="none" style="stroke:#181818;stroke-width:1.0;"/><path d="M263,432.2266 L273,432.2266 C288,432.2266 288,488.5234 303,488.5234 L313,488.5234 " fill="none" style="stroke:#181818;stroke-width:1.0;"/><rect fill="#F1F1F1" height="36.2969" rx="12.5" ry="12.5" style="stroke:#181818;stroke-width:1.5;" width="116" x="313" y="582.9688"/><a href="escala.svg" target="_top" title="escala.svg" xlink:actuate="onRequest" xlink:href="escala.svg" xlink:show="new" xlink:title="escala.svg" xlink:type="simple"><text fill="#0000FF" font-family="sans-serif" font-size="14" lengthAdjust="spacing" text-decoration="underline" textLength="96" x="323" y="605.9639">Escalamiento</text></a><path d="M263,432.2266 L273,432.2266 C288,432.2266 288,601.1172 303,601.1172 L313,601.1172 " fill="none" style="stroke:#181818;stroke-width:1.0;"/><path d="M61,375.9297 L71,375.9297 C86,375.9297 86,432.2266 101,432.2266 L111,432.2266 " fill="none" style="stroke:#181818;stroke-width:1.0;"/><rect fill="#F1F1F1" height="36.2969" rx="12.5" ry="12.5" style="stroke:#181818;stroke-width:1.5;" width="191" x="111" y="639.2656"/><a href="orco.svg" target="_top" title="orco.svg" xlink:actuate="onRequest" xlink:href="orco.svg" xlink:show="new" xlink:title="orco.svg" xlink:type="simple"><text fill="#0000FF" font-family="sans-serif" font-size="14" lengthAdjust="spacing" text-decoration="underline" textLength="171" x="121" y="662.2607">Organizaci&#243;n del c&#243;digo</text></a><path d="M61,375.9297 L71,375.9297 C86,375.9297 86,657.4141 101,657.4141 L111,657.4141 " fill="none" style="stroke:#181818;stroke-width:1.0;"/><rect fill="#F1F1F1" height="36.2969" rx="12.5" ry="12.5" style="stroke:#181818;stroke-width:1.5;" width="165" x="111" y="695.5625"/><a href="ordev.svg" target="_top" title="ordev.svg" xlink:actuate="onRequest" xlink:href="ordev.svg" xlink:show="new" xlink:title="ordev.svg" xlink:type="simple"><text fill="#0000FF" font-family="sans-serif" font-size="14" lengthAdjust="spacing" text-decoration="underline" textLength="145" x="121" y="718.5576">Orden de evaluaci&#243;n</text></a><path d="M61,375.9297 L71,375.9297 C86,375.9297 86,713.7109 101,713.7109 L111,713.7109 " fill="none" style="stroke:#181818;stroke-width:1.0;"/><!--SRC=[TP9BRjj038RtEWM1Rkm0CHevA8giaiPfYy16WyZEnlM2qb3gjACPWJDI7xVf4OeSmHVhZ2G_6haxQlZn9tzIrzOXkr9gKM8LdQrV2ICAubJLj87rsh_JZubj2hYzcMqsqTc0c8esFPr1yWKhiYqqeB8wDPsC3quZP7DYRA6xDloFabIoK_A15joh3JX68RkMZo4wBUOCTypI1r9GhzMLno-g0vzsDAEskU4ICsaqMVYiq-rlApFixGUKqUvWgpouVTO7USpRtCtsZvTdo6LHUynlyO0u-R8SmZKgqaAITaUpEZ4W1romP5pdoBZXEF6fUGw0uUum6aY1OLdGKRNgitFwQgnl_I_HdZP3jJjj2CimsNwhXhFk2f-uG2r_xJqeoBRFGXP7fA2cHmK51AX1LU_zN7lNkvyvUb2etMenXuRO-aF1nIH-7Kyd5vSfEOn7A_rDc-yQCbDMKX4uMT8u6druc8CrDMS4Gbh7CgsThnv7zzWWFDOwS5SGlaRBnHYIkzsZtqyZsUZIkulkdnOT11-DIohZMlZDvVaxwI0XzaF1qoAQKOwrShuqCqBguWfMo_VdRwCvwgB6mZSY7TqQtu1_-bpo5m00]--></g></svg>